/* XPM */
static char *awesome_icon[] = {
/* columns rows colors chars-per-pixel */
"16 16 2 1 ",
"  c #F3EAB5",
". c None",
/* pixels */
"                ",
"                ",
"                ",
"                ",
"                ",
"...........     ",
"                ",
"                ",
"                ",
"                ",
"     ......     ",
"          .     ",
"          .     ",
"          .     ",
"          .     ",
"          .     "
};
