/* XPM */
static char *floatingw[] = {
/* columns rows colors chars-per-pixel */
"16 16 3 1 ",
"  c #F3EAB5",
". c #F3EAB5",
"X c None",
/* pixels */
"XXXXXXXXXXXXXXXX",
"XXXXXXXXXXXXXXXX",
"XXXXXXXXXXXXXXXX",
"XXXXXXXXXXXXXXXX",
"XXX      .    XX",
"XXXX.XXXXXXXX XX",
"XX  . .  .  X XX",
"XX          X XX",
"XX          X XX",
"XX          X XX",
"XX          X XX",
"XX... .. ...XXXX",
"XXXXXXXXXXXXXXXX",
"XXXXXXXXXXXXXXXX",
"XXXXXXXXXXXXXXXX",
"XXXXXXXXXXXXXXXX"
};
